<svg width="50" height="50" viewBox="0 0 50 50" fill="none" xmlns="http://www.w3.org/2000/svg">
<path d="M0 25C0 11.1929 11.1929 0 25 0C38.8071 0 50 11.1929 50 25C50 38.8071 38.8071 50 25 50C11.1929 50 0 38.8071 0 25Z" fill="#ECF3FF"/>
<path d="M21.0109 17.5532L12.2734 26.6053L21.0109 35.0282" stroke="#ECF3FF" stroke-width="2" stroke-linecap="round" stroke-linejoin="round"/>
<path d="M32.6609 17.5532L41.3985 26.6053L32.6609 35.0282" stroke="#ECF3FF" stroke-width="2" stroke-linecap="round" stroke-linejoin="round"/>
<path d="M29.7484 11L24.6516 40.125" stroke="#ECF3FF" stroke-width="2" stroke-linecap="round"/>
<path d="M18.7375 17.5532L10 26.6053L18.7375 35.0282" stroke="#2979FF" stroke-width="2" stroke-linecap="round" stroke-linejoin="round"/>
<path d="M30.3875 17.5532L39.125 26.6053L30.3875 35.0282" stroke="#2979FF" stroke-width="2" stroke-linecap="round" stroke-linejoin="round"/>
<path d="M27.475 11L22.3781 40.125" stroke="#2979FF" stroke-width="2" stroke-linecap="round"/>
</svg>
