<svg width="50" height="50" viewBox="0 0 50 50" fill="none" xmlns="http://www.w3.org/2000/svg">
<path d="M0 25C0 11.1929 11.1929 0 25 0C38.8071 0 50 11.1929 50 25C50 38.8071 38.8071 50 25 50C11.1929 50 0 38.8071 0 25Z" fill="#ECF3FF"/>
<path d="M19.4774 33.5898V40.0171" stroke="#ECF3FF" stroke-width="2" stroke-linecap="round"/>
<path d="M13.1764 38.3557V39.9751" stroke="#ECF3FF" stroke-width="2" stroke-linecap="round"/>
<path d="M25.7785 28.1162V39.9869" stroke="#ECF3FF" stroke-width="2" stroke-linecap="round"/>
<path d="M32.0795 21.7839V40" stroke="#ECF3FF" stroke-width="2" stroke-linecap="round"/>
<path d="M38.3818 15.49V39.9962" stroke="#ECF3FF" stroke-width="2" stroke-linecap="round"/>
<path d="M18.3011 33.5898V40.0171" stroke="#2979FF" stroke-width="2" stroke-linecap="round"/>
<path d="M12 38.3557V39.9751" stroke="#2979FF" stroke-width="2" stroke-linecap="round"/>
<path d="M24.6021 28.1162V39.9869" stroke="#2979FF" stroke-width="2" stroke-linecap="round"/>
<path d="M30.9032 21.7839V40" stroke="#2979FF" stroke-width="2" stroke-linecap="round"/>
<path d="M37.2054 15.49V39.9962" stroke="#2979FF" stroke-width="2" stroke-linecap="round"/>
<path d="M12 31.2666L33.2666 10" stroke="#2979FF" stroke-width="2" stroke-linecap="round"/>
</svg>
