<svg width="1890" height="741" viewBox="0 0 1890 741" fill="none" xmlns="http://www.w3.org/2000/svg">
<path d="M1661.54 0H1560.66L1926 365.65V264.688L1661.54 0Z" fill="#E5E5E5"/>
<path d="M1365.72 0L1413.53 47.996L1461.49 0H1365.72Z" fill="#4A4F52"/>
<path d="M1781.36 239.905L1695.98 325.353L1781.36 410.8L1866.73 325.353L1781.36 239.905Z" fill="#2979FF"/>
<path d="M1657.71 249.746L1617.98 289.508L1657.71 329.269L1697.44 289.508L1657.71 249.746Z" fill="#4A4F52"/>
<path d="M76.889 300.793L37.1609 340.555L76.889 380.317L116.617 340.555L76.889 300.793Z" fill="#4A4F52"/>
<path d="M1926 241.968V144.272L1781.85 0H1684.24L1926 241.968Z" fill="#4A4F52"/>
<path d="M1926 26.554V0H1870.24L1720.27 150.094L1570.45 0H1488.16L1720.27 232.312L1926 26.554Z" fill="#2979FF"/>
<g opacity="0.6">
<path opacity="0.6" d="M1926 282.296L1643.94 0" stroke="#B9BCC3" stroke-width="0.5" stroke-miterlimit="10"/>
<path opacity="0.6" d="M1926 295.218L1631.03 0" stroke="#B9BCC3" stroke-width="0.5" stroke-miterlimit="10"/>
<path opacity="0.6" d="M1926 308.14L1618.12 0" stroke="#B9BCC3" stroke-width="0.5" stroke-miterlimit="10"/>
<path opacity="0.6" d="M1926 320.92L1765.68 160.46L1605.35 0" stroke="#B9BCC3" stroke-width="0.5" stroke-miterlimit="10"/>
<path opacity="0.6" d="M1926 333.842L1592.44 0" stroke="#B9BCC3" stroke-width="0.5" stroke-miterlimit="10"/>
</g>
<path d="M1741.13 608.754L1926 423.728V311.264L1628.76 608.754L1737.5 718.5L1842.29 710L1741.13 608.754Z" fill="#4A4F52"/>
<path d="M1801.5 758.5L1926 633.604V530.796L1691.5 758.5H1801.5Z" fill="#2979FF"/>
<path d="M527.634 530.796C528.731 530.796 529.62 529.906 529.62 528.808C529.62 527.71 528.731 526.82 527.634 526.82C526.537 526.82 525.647 527.71 525.647 528.808C525.647 529.906 526.537 530.796 527.634 530.796Z" fill="#2979FF"/>
<path d="M527.634 512.336C528.731 512.336 529.62 511.446 529.62 510.348C529.62 509.25 528.731 508.36 527.634 508.36C526.537 508.36 525.647 509.25 525.647 510.348C525.647 511.446 526.537 512.336 527.634 512.336Z" fill="#2979FF"/>
<path d="M527.634 493.876C528.731 493.876 529.62 492.986 529.62 491.888C529.62 490.79 528.731 489.9 527.634 489.9C526.537 489.9 525.647 490.79 525.647 491.888C525.647 492.986 526.537 493.876 527.634 493.876Z" fill="#2979FF"/>
<path d="M527.634 475.416C528.731 475.416 529.62 474.526 529.62 473.428C529.62 472.33 528.731 471.44 527.634 471.44C526.537 471.44 525.647 472.33 525.647 473.428C525.647 474.526 526.537 475.416 527.634 475.416Z" fill="#2979FF"/>
<path d="M527.634 456.956C528.731 456.956 529.62 456.066 529.62 454.968C529.62 453.87 528.731 452.98 527.634 452.98C526.537 452.98 525.647 453.87 525.647 454.968C525.647 456.066 526.537 456.956 527.634 456.956Z" fill="#2979FF"/>
<path d="M527.634 438.496C528.731 438.496 529.62 437.606 529.62 436.508C529.62 435.41 528.731 434.52 527.634 434.52C526.537 434.52 525.647 435.41 525.647 436.508C525.647 437.606 526.537 438.496 527.634 438.496Z" fill="#2979FF"/>
<path d="M527.634 420.036C528.731 420.036 529.62 419.146 529.62 418.048C529.62 416.95 528.731 416.06 527.634 416.06C526.537 416.06 525.647 416.95 525.647 418.048C525.647 419.146 526.537 420.036 527.634 420.036Z" fill="#2979FF"/>
<path d="M546.078 530.796C547.175 530.796 548.064 529.906 548.064 528.808C548.064 527.71 547.175 526.82 546.078 526.82C544.981 526.82 544.092 527.71 544.092 528.808C544.092 529.906 544.981 530.796 546.078 530.796Z" fill="#2979FF"/>
<path d="M546.078 512.336C547.175 512.336 548.064 511.446 548.064 510.348C548.064 509.25 547.175 508.36 546.078 508.36C544.981 508.36 544.092 509.25 544.092 510.348C544.092 511.446 544.981 512.336 546.078 512.336Z" fill="#2979FF"/>
<path d="M546.078 493.876C547.175 493.876 548.064 492.986 548.064 491.888C548.064 490.79 547.175 489.9 546.078 489.9C544.981 489.9 544.092 490.79 544.092 491.888C544.092 492.986 544.981 493.876 546.078 493.876Z" fill="#2979FF"/>
<path d="M546.078 475.416C547.175 475.416 548.064 474.526 548.064 473.428C548.064 472.33 547.175 471.44 546.078 471.44C544.981 471.44 544.092 472.33 544.092 473.428C544.092 474.526 544.981 475.416 546.078 475.416Z" fill="#2979FF"/>
<path d="M546.078 456.956C547.175 456.956 548.064 456.066 548.064 454.968C548.064 453.87 547.175 452.98 546.078 452.98C544.981 452.98 544.092 453.87 544.092 454.968C544.092 456.066 544.981 456.956 546.078 456.956Z" fill="#2979FF"/>
<path d="M546.078 438.496C547.175 438.496 548.064 437.606 548.064 436.508C548.064 435.41 547.175 434.52 546.078 434.52C544.981 434.52 544.092 435.41 544.092 436.508C544.092 437.606 544.981 438.496 546.078 438.496Z" fill="#2979FF"/>
<path d="M546.078 420.036C547.175 420.036 548.064 419.146 548.064 418.048C548.064 416.95 547.175 416.06 546.078 416.06C544.981 416.06 544.092 416.95 544.092 418.048C544.092 419.146 544.981 420.036 546.078 420.036Z" fill="#2979FF"/>
<path d="M564.522 530.796C565.619 530.796 566.509 529.906 566.509 528.808C566.509 527.71 565.619 526.82 564.522 526.82C563.425 526.82 562.536 527.71 562.536 528.808C562.536 529.906 563.425 530.796 564.522 530.796Z" fill="#2979FF"/>
<path d="M564.522 512.336C565.619 512.336 566.509 511.446 566.509 510.348C566.509 509.25 565.619 508.36 564.522 508.36C563.425 508.36 562.536 509.25 562.536 510.348C562.536 511.446 563.425 512.336 564.522 512.336Z" fill="#2979FF"/>
<path d="M564.522 493.876C565.619 493.876 566.509 492.986 566.509 491.888C566.509 490.79 565.619 489.9 564.522 489.9C563.425 489.9 562.536 490.79 562.536 491.888C562.536 492.986 563.425 493.876 564.522 493.876Z" fill="#2979FF"/>
<path d="M564.522 475.416C565.619 475.416 566.509 474.526 566.509 473.428C566.509 472.33 565.619 471.44 564.522 471.44C563.425 471.44 562.536 472.33 562.536 473.428C562.536 474.526 563.425 475.416 564.522 475.416Z" fill="#2979FF"/>
<path d="M564.522 456.956C565.619 456.956 566.509 456.066 566.509 454.968C566.509 453.87 565.619 452.98 564.522 452.98C563.425 452.98 562.536 453.87 562.536 454.968C562.536 456.066 563.425 456.956 564.522 456.956Z" fill="#2979FF"/>
<path d="M564.522 438.496C565.619 438.496 566.509 437.606 566.509 436.508C566.509 435.41 565.619 434.52 564.522 434.52C563.425 434.52 562.536 435.41 562.536 436.508C562.536 437.606 563.425 438.496 564.522 438.496Z" fill="#2979FF"/>
<path d="M564.522 420.036C565.619 420.036 566.509 419.146 566.509 418.048C566.509 416.95 565.619 416.06 564.522 416.06C563.425 416.06 562.536 416.95 562.536 418.048C562.536 419.146 563.425 420.036 564.522 420.036Z" fill="#2979FF"/>
<path d="M582.967 530.796C584.064 530.796 584.953 529.906 584.953 528.808C584.953 527.71 584.064 526.82 582.967 526.82C581.87 526.82 580.98 527.71 580.98 528.808C580.98 529.906 581.87 530.796 582.967 530.796Z" fill="#2979FF"/>
<path d="M582.967 512.336C584.064 512.336 584.953 511.446 584.953 510.348C584.953 509.25 584.064 508.36 582.967 508.36C581.87 508.36 580.98 509.25 580.98 510.348C580.98 511.446 581.87 512.336 582.967 512.336Z" fill="#2979FF"/>
<path d="M582.967 493.876C584.064 493.876 584.953 492.986 584.953 491.888C584.953 490.79 584.064 489.9 582.967 489.9C581.87 489.9 580.98 490.79 580.98 491.888C580.98 492.986 581.87 493.876 582.967 493.876Z" fill="#2979FF"/>
<path d="M582.967 475.416C584.064 475.416 584.953 474.526 584.953 473.428C584.953 472.33 584.064 471.44 582.967 471.44C581.87 471.44 580.98 472.33 580.98 473.428C580.98 474.526 581.87 475.416 582.967 475.416Z" fill="#2979FF"/>
<path d="M582.967 456.956C584.064 456.956 584.953 456.066 584.953 454.968C584.953 453.87 584.064 452.98 582.967 452.98C581.87 452.98 580.98 453.87 580.98 454.968C580.98 456.066 581.87 456.956 582.967 456.956Z" fill="#2979FF"/>
<path d="M582.967 438.496C584.064 438.496 584.953 437.606 584.953 436.508C584.953 435.41 584.064 434.52 582.967 434.52C581.87 434.52 580.98 435.41 580.98 436.508C580.98 437.606 581.87 438.496 582.967 438.496Z" fill="#2979FF"/>
<path d="M582.967 420.036C584.064 420.036 584.953 419.146 584.953 418.048C584.953 416.95 584.064 416.06 582.967 416.06C581.87 416.06 580.98 416.95 580.98 418.048C580.98 419.146 581.87 420.036 582.967 420.036Z" fill="#2979FF"/>
<path d="M601.411 530.796C602.508 530.796 603.397 529.906 603.397 528.808C603.397 527.71 602.508 526.82 601.411 526.82C600.314 526.82 599.425 527.71 599.425 528.808C599.425 529.906 600.314 530.796 601.411 530.796Z" fill="#2979FF"/>
<path d="M601.411 512.336C602.508 512.336 603.397 511.446 603.397 510.348C603.397 509.25 602.508 508.36 601.411 508.36C600.314 508.36 599.425 509.25 599.425 510.348C599.425 511.446 600.314 512.336 601.411 512.336Z" fill="#2979FF"/>
<path d="M601.411 493.876C602.508 493.876 603.397 492.986 603.397 491.888C603.397 490.79 602.508 489.9 601.411 489.9C600.314 489.9 599.425 490.79 599.425 491.888C599.425 492.986 600.314 493.876 601.411 493.876Z" fill="#2979FF"/>
<path d="M601.411 475.416C602.508 475.416 603.397 474.526 603.397 473.428C603.397 472.33 602.508 471.44 601.411 471.44C600.314 471.44 599.425 472.33 599.425 473.428C599.425 474.526 600.314 475.416 601.411 475.416Z" fill="#2979FF"/>
<path d="M601.411 456.956C602.508 456.956 603.397 456.066 603.397 454.968C603.397 453.87 602.508 452.98 601.411 452.98C600.314 452.98 599.425 453.87 599.425 454.968C599.425 456.066 600.314 456.956 601.411 456.956Z" fill="#2979FF"/>
<path d="M601.411 438.496C602.508 438.496 603.397 437.606 603.397 436.508C603.397 435.41 602.508 434.52 601.411 434.52C600.314 434.52 599.425 435.41 599.425 436.508C599.425 437.606 600.314 438.496 601.411 438.496Z" fill="#2979FF"/>
<path d="M601.411 420.036C602.508 420.036 603.397 419.146 603.397 418.048C603.397 416.95 602.508 416.06 601.411 416.06C600.314 416.06 599.425 416.95 599.425 418.048C599.425 419.146 600.314 420.036 601.411 420.036Z" fill="#2979FF"/>
<path d="M1725.95 329.298C1727.05 329.298 1727.94 328.408 1727.94 327.31C1727.94 326.212 1727.05 325.322 1725.95 325.322C1724.85 325.322 1723.96 326.212 1723.96 327.31C1723.96 328.408 1724.85 329.298 1725.95 329.298Z" fill="#4A4F52"/>
<path d="M1744.39 329.298C1745.49 329.298 1746.38 328.408 1746.38 327.31C1746.38 326.212 1745.49 325.322 1744.39 325.322C1743.3 325.322 1742.41 326.212 1742.41 327.31C1742.41 328.408 1743.3 329.298 1744.39 329.298Z" fill="#4A4F52"/>
<path d="M1762.84 329.298C1763.94 329.298 1764.82 328.408 1764.82 327.31C1764.82 326.212 1763.94 325.322 1762.84 325.322C1761.74 325.322 1760.85 326.212 1760.85 327.31C1760.85 328.408 1761.74 329.298 1762.84 329.298Z" fill="#4A4F52"/>
<path d="M1781.28 329.298C1782.38 329.298 1783.27 328.408 1783.27 327.31C1783.27 326.212 1782.38 325.322 1781.28 325.322C1780.19 325.322 1779.3 326.212 1779.3 327.31C1779.3 328.408 1780.19 329.298 1781.28 329.298Z" fill="#4A4F52"/>
<path d="M1725.95 347.758C1727.05 347.758 1727.94 346.868 1727.94 345.77C1727.94 344.672 1727.05 343.782 1725.95 343.782C1724.85 343.782 1723.96 344.672 1723.96 345.77C1723.96 346.868 1724.85 347.758 1725.95 347.758Z" fill="#4A4F52"/>
<path d="M1744.39 347.758C1745.49 347.758 1746.38 346.868 1746.38 345.77C1746.38 344.672 1745.49 343.782 1744.39 343.782C1743.3 343.782 1742.41 344.672 1742.41 345.77C1742.41 346.868 1743.3 347.758 1744.39 347.758Z" fill="#4A4F52"/>
<path d="M1762.84 347.758C1763.94 347.758 1764.82 346.868 1764.82 345.77C1764.82 344.672 1763.94 343.782 1762.84 343.782C1761.74 343.782 1760.85 344.672 1760.85 345.77C1760.85 346.868 1761.74 347.758 1762.84 347.758Z" fill="#4A4F52"/>
<path d="M1781.28 347.758C1782.38 347.758 1783.27 346.868 1783.27 345.77C1783.27 344.672 1782.38 343.782 1781.28 343.782C1780.19 343.782 1779.3 344.672 1779.3 345.77C1779.3 346.868 1780.19 347.758 1781.28 347.758Z" fill="#4A4F52"/>
<path d="M1725.95 366.218C1727.05 366.218 1727.94 365.328 1727.94 364.23C1727.94 363.132 1727.05 362.242 1725.95 362.242C1724.85 362.242 1723.96 363.132 1723.96 364.23C1723.96 365.328 1724.85 366.218 1725.95 366.218Z" fill="#4A4F52"/>
<path d="M1744.39 366.218C1745.49 366.218 1746.38 365.328 1746.38 364.23C1746.38 363.132 1745.49 362.242 1744.39 362.242C1743.3 362.242 1742.41 363.132 1742.41 364.23C1742.41 365.328 1743.3 366.218 1744.39 366.218Z" fill="#4A4F52"/>
<path d="M1762.84 366.218C1763.94 366.218 1764.82 365.328 1764.82 364.23C1764.82 363.132 1763.94 362.242 1762.84 362.242C1761.74 362.242 1760.85 363.132 1760.85 364.23C1760.85 365.328 1761.74 366.218 1762.84 366.218Z" fill="#4A4F52"/>
<path d="M1781.28 366.218C1782.38 366.218 1783.27 365.328 1783.27 364.23C1783.27 363.132 1782.38 362.242 1781.28 362.242C1780.19 362.242 1779.3 363.132 1779.3 364.23C1779.3 365.328 1780.19 366.218 1781.28 366.218Z" fill="#4A4F52"/>
<path d="M1725.95 384.678C1727.05 384.678 1727.94 383.788 1727.94 382.69C1727.94 381.592 1727.05 380.702 1725.95 380.702C1724.85 380.702 1723.96 381.592 1723.96 382.69C1723.96 383.788 1724.85 384.678 1725.95 384.678Z" fill="#4A4F52"/>
<path d="M1744.39 384.678C1745.49 384.678 1746.38 383.788 1746.38 382.69C1746.38 381.592 1745.49 380.702 1744.39 380.702C1743.3 380.702 1742.41 381.592 1742.41 382.69C1742.41 383.788 1743.3 384.678 1744.39 384.678Z" fill="#4A4F52"/>
<path d="M1762.84 384.678C1763.94 384.678 1764.82 383.788 1764.82 382.69C1764.82 381.592 1763.94 380.702 1762.84 380.702C1761.74 380.702 1760.85 381.592 1760.85 382.69C1760.85 383.788 1761.74 384.678 1762.84 384.678Z" fill="#4A4F52"/>
<path d="M1781.28 384.678C1782.38 384.678 1783.27 383.788 1783.27 382.69C1783.27 381.592 1782.38 380.702 1781.28 380.702C1780.19 380.702 1779.3 381.592 1779.3 382.69C1779.3 383.788 1780.19 384.678 1781.28 384.678Z" fill="#4A4F52"/>
<path d="M1605.64 644.112C1604.93 643.402 1604.93 642.124 1605.64 641.414C1606.34 640.704 1607.62 640.704 1608.33 641.414C1609.04 642.124 1609.04 643.402 1608.33 644.112C1607.62 644.822 1606.34 644.822 1605.64 644.112Z" fill="#4A4F52"/>
<path d="M1592.58 657.176C1591.87 656.466 1591.87 655.188 1592.58 654.478C1593.29 653.768 1594.57 653.768 1595.28 654.478C1595.99 655.188 1595.99 656.466 1595.28 657.176C1594.57 657.886 1593.29 657.886 1592.58 657.176Z" fill="#4A4F52"/>
<path d="M1579.53 670.098C1578.82 669.388 1578.82 668.11 1579.53 667.4C1580.24 666.69 1581.52 666.69 1582.23 667.4C1582.93 668.11 1582.93 669.388 1582.23 670.098C1581.52 670.95 1580.24 670.95 1579.53 670.098Z" fill="#4A4F52"/>
<path d="M1566.48 683.162C1565.77 682.452 1565.77 681.174 1566.48 680.464C1567.19 679.754 1568.46 679.754 1569.17 680.464C1569.88 681.174 1569.88 682.452 1569.17 683.162C1568.46 684.014 1567.19 684.014 1566.48 683.162Z" fill="#4A4F52"/>
<path d="M1593.86 631.616C1594.96 631.616 1595.85 630.726 1595.85 629.628C1595.85 628.53 1594.96 627.64 1593.86 627.64C1592.76 627.64 1591.87 628.53 1591.87 629.628C1591.87 630.726 1592.76 631.616 1593.86 631.616Z" fill="#4A4F52"/>
<path d="M1579.53 644.112C1578.82 643.402 1578.82 642.124 1579.53 641.414C1580.24 640.704 1581.52 640.704 1582.23 641.414C1582.93 642.124 1582.93 643.402 1582.23 644.112C1581.52 644.822 1580.24 644.822 1579.53 644.112Z" fill="#4A4F52"/>
<path d="M1566.48 657.176C1565.77 656.466 1565.77 655.188 1566.48 654.478C1567.19 653.768 1568.46 653.768 1569.17 654.478C1569.88 655.188 1569.88 656.466 1569.17 657.176C1568.46 657.886 1567.19 657.886 1566.48 657.176Z" fill="#4A4F52"/>
<path d="M1553.42 670.098C1552.71 669.388 1552.71 668.11 1553.42 667.4C1554.13 666.69 1555.41 666.69 1556.12 667.4C1556.83 668.11 1556.83 669.388 1556.12 670.098C1555.41 670.95 1554.13 670.95 1553.42 670.098Z" fill="#4A4F52"/>
<path d="M1579.53 617.984C1578.82 617.274 1578.82 615.996 1579.53 615.286C1580.24 614.576 1581.52 614.576 1582.23 615.286C1582.93 615.996 1582.93 617.274 1582.23 617.984C1581.52 618.694 1580.24 618.694 1579.53 617.984Z" fill="#4A4F52"/>
<path d="M1567.9 631.616C1568.99 631.616 1569.88 630.726 1569.88 629.628C1569.88 628.53 1568.99 627.64 1567.9 627.64C1566.8 627.64 1565.91 628.53 1565.91 629.628C1565.91 630.726 1566.8 631.616 1567.9 631.616Z" fill="#4A4F52"/>
<path d="M1553.42 644.112C1552.71 643.402 1552.71 642.124 1553.42 641.414C1554.13 640.704 1555.41 640.704 1556.12 641.414C1556.83 642.124 1556.83 643.402 1556.12 644.112C1555.41 644.822 1554.13 644.822 1553.42 644.112Z" fill="#4A4F52"/>
<path d="M1540.37 657.176C1539.66 656.466 1539.66 655.188 1540.37 654.478C1541.08 653.768 1542.36 653.768 1543.07 654.478C1543.78 655.188 1543.78 656.466 1543.07 657.176C1542.36 657.886 1541.08 657.886 1540.37 657.176Z" fill="#4A4F52"/>
<path d="M1566.48 604.92C1565.77 604.21 1565.77 602.932 1566.48 602.222C1567.19 601.512 1568.46 601.512 1569.17 602.222C1569.88 602.932 1569.88 604.21 1569.17 604.92C1568.46 605.63 1567.19 605.63 1566.48 604.92Z" fill="#4A4F52"/>
<path d="M1553.42 617.984C1552.71 617.274 1552.71 615.996 1553.42 615.286C1554.13 614.576 1555.41 614.576 1556.12 615.286C1556.83 615.996 1556.83 617.274 1556.12 617.984C1555.41 618.694 1554.13 618.694 1553.42 617.984Z" fill="#4A4F52"/>
<path d="M1540.37 631.048C1539.66 630.338 1539.66 629.06 1540.37 628.35C1541.08 627.64 1542.36 627.64 1543.07 628.35C1543.78 629.06 1543.78 630.338 1543.07 631.048C1542.36 631.758 1541.08 631.758 1540.37 631.048Z" fill="#4A4F52"/>
<path d="M1527.32 644.112C1526.61 643.402 1526.61 642.124 1527.32 641.414C1528.03 640.704 1529.3 640.704 1530.01 641.414C1530.72 642.124 1530.72 643.402 1530.01 644.112C1529.3 644.822 1528.03 644.822 1527.32 644.112Z" fill="#4A4F52"/>
<path d="M139.369 122.138C138.66 121.428 138.66 120.15 139.369 119.44C140.079 118.73 141.355 118.73 142.065 119.44C142.774 120.15 142.774 121.428 142.065 122.138C141.355 122.848 140.079 122.848 139.369 122.138Z" fill="#4A4F52"/>
<path d="M126.316 135.202C125.607 134.492 125.607 133.214 126.316 132.504C127.026 131.794 128.303 131.794 129.012 132.504C129.721 133.214 129.721 134.492 129.012 135.202C128.303 135.912 127.026 135.912 126.316 135.202Z" fill="#4A4F52"/>
<path d="M113.263 148.124C112.554 147.414 112.554 146.136 113.263 145.426C113.973 144.716 115.25 144.716 115.959 145.426C116.669 146.136 116.669 147.414 115.959 148.124C115.25 148.976 113.973 148.976 113.263 148.124Z" fill="#4A4F52"/>
<path d="M100.21 161.188C99.5009 160.478 99.5009 159.2 100.21 158.49C100.92 157.78 102.197 157.78 102.906 158.49C103.615 159.2 103.615 160.478 102.906 161.188C102.197 162.04 100.92 162.04 100.21 161.188Z" fill="#4A4F52"/>
<path d="M127.593 109.642C128.69 109.642 129.579 108.752 129.579 107.654C129.579 106.556 128.69 105.666 127.593 105.666C126.496 105.666 125.607 106.556 125.607 107.654C125.607 108.752 126.496 109.642 127.593 109.642Z" fill="#4A4F52"/>
<path d="M113.263 122.138C112.554 121.428 112.554 120.15 113.263 119.44C113.973 118.73 115.25 118.73 115.959 119.44C116.669 120.15 116.669 121.428 115.959 122.138C115.25 122.848 113.973 122.848 113.263 122.138Z" fill="#4A4F52"/>
<path d="M100.21 135.202C99.5009 134.492 99.5009 133.214 100.21 132.504C100.92 131.794 102.197 131.794 102.906 132.504C103.615 133.214 103.615 134.492 102.906 135.202C102.197 135.912 100.92 135.912 100.21 135.202Z" fill="#4A4F52"/>
<path d="M87.1574 148.124C86.448 147.414 86.448 146.136 87.1574 145.426C87.8668 144.716 89.1438 144.716 89.8532 145.426C90.5626 146.136 90.5626 147.414 89.8532 148.124C89.1438 148.976 87.8668 148.976 87.1574 148.124Z" fill="#4A4F52"/>
<path d="M113.263 96.0101C112.554 95.3001 112.554 94.022 113.263 93.312C113.973 92.602 115.25 92.602 115.959 93.312C116.669 94.022 116.669 95.3001 115.959 96.0101C115.25 96.7201 113.973 96.7201 113.263 96.0101Z" fill="#4A4F52"/>
<path d="M101.629 109.642C102.726 109.642 103.615 108.752 103.615 107.654C103.615 106.556 102.726 105.666 101.629 105.666C100.532 105.666 99.6429 106.556 99.6429 107.654C99.6429 108.752 100.532 109.642 101.629 109.642Z" fill="#4A4F52"/>
<path d="M87.1574 122.138C86.448 121.428 86.448 120.15 87.1574 119.44C87.8668 118.73 89.1438 118.73 89.8532 119.44C90.5626 120.15 90.5626 121.428 89.8532 122.138C89.1438 122.848 87.8668 122.848 87.1574 122.138Z" fill="#4A4F52"/>
<path d="M74.1044 135.202C73.395 134.492 73.395 133.214 74.1044 132.504C74.8138 131.794 76.0907 131.794 76.8001 132.504C77.5095 133.214 77.5095 134.492 76.8001 135.202C76.0907 135.912 74.8138 135.912 74.1044 135.202Z" fill="#4A4F52"/>
<path d="M100.21 82.9461C99.5009 82.2361 99.5009 80.9581 100.21 80.2481C100.92 79.5381 102.197 79.5381 102.906 80.2481C103.615 80.9581 103.615 82.2361 102.906 82.9461C102.197 83.6561 100.92 83.6561 100.21 82.9461Z" fill="#4A4F52"/>
<path d="M87.1574 96.0101C86.448 95.3001 86.448 94.022 87.1574 93.312C87.8668 92.602 89.1438 92.602 89.8532 93.312C90.5626 94.022 90.5626 95.3001 89.8532 96.0101C89.1438 96.7201 87.8668 96.7201 87.1574 96.0101Z" fill="#4A4F52"/>
<path d="M74.1044 109.074C73.395 108.364 73.395 107.086 74.1044 106.376C74.8138 105.666 76.0907 105.666 76.8001 106.376C77.5095 107.086 77.5095 108.364 76.8001 109.074C76.0907 109.784 74.8138 109.784 74.1044 109.074Z" fill="#4A4F52"/>
<path d="M61.0514 122.138C60.342 121.428 60.342 120.15 61.0514 119.44C61.7608 118.73 63.0378 118.73 63.7472 119.44C64.4566 120.15 64.4566 121.428 63.7472 122.138C63.0378 122.848 61.7608 122.848 61.0514 122.138Z" fill="#4A4F52"/>
<path d="M1933.26 436L1629 740.522" stroke="#2979FF" stroke-miterlimit="10"/>
<path d="M1933.26 452.587L1645.57 740.522" stroke="#2979FF" stroke-miterlimit="10"/>
<path d="M1933.26 469.013L1661.98 740.522" stroke="#2979FF" stroke-miterlimit="10"/>
<path d="M1933.26 485.6L1678.56 740.522" stroke="#2979FF" stroke-miterlimit="10"/>
<path d="M1933.26 502.025L1694.97 740.522" stroke="#2979FF" stroke-miterlimit="10"/>
</svg>
